<svg id="SvgjsSvg1064" width="465" height="320" xmlns="http://www.w3.org/2000/svg" version="1.1" xmlns:xlink="http://www.w3.org/1999/xlink" xmlns:svgjs="http://svgjs.com/svgjs"><defs id="SvgjsDefs1065"><marker id="SvgjsMarker1116" markerWidth="16" markerHeight="12" refX="16" refY="6" viewBox="0 0 16 12" orient="auto" markerUnits="userSpaceOnUse" stroke-dasharray="0,0"><path id="SvgjsPath1117" d="M0,2 L14,6 L0,11 L0,2" fill="#323232" stroke="#323232" stroke-width="2"></path></marker><marker id="SvgjsMarker1120" markerWidth="16" markerHeight="12" refX="16" refY="6" viewBox="0 0 16 12" orient="auto" markerUnits="userSpaceOnUse" stroke-dasharray="0,0"><path id="SvgjsPath1121" d="M0,2 L14,6 L0,11 L0,2" fill="#323232" stroke="#323232" stroke-width="2"></path></marker></defs><g id="SvgjsG1066" transform="translate(25,25)"><path id="SvgjsPath1067" d="M 0 4Q 0 0 4 0L 202 0Q 206 0 206 4L 206 266Q 206 270 202 270L 4 270Q 0 270 0 266Z" stroke="rgba(50,50,50,1)" stroke-width="2" fill-opacity="1" fill="#ffffcc"></path><g id="SvgjsG1068"><text id="SvgjsText1069" font-family="微软雅黑" text-anchor="middle" font-size="13px" width="196px" fill="#323232" font-weight="400" align="middle" anchor="middle" family="微软雅黑" size="13px" weight="400" font-style="" opacity="1" y="10.335714285714285" transform="rotate(0)"><tspan id="SvgjsTspan1070" dy="16" x="103"><tspan id="SvgjsTspan1071" style="text-decoration:;">早绑定</tspan></tspan></text></g></g><g id="SvgjsG1072" transform="translate(231,25)"><path id="SvgjsPath1073" d="M 0 4Q 0 0 4 0L 205 0Q 209 0 209 4L 209 266Q 209 270 205 270L 4 270Q 0 270 0 266Z" stroke="rgba(50,50,50,1)" stroke-width="2" fill-opacity="1" fill="#ffff66"></path><g id="SvgjsG1074"><text id="SvgjsText1075" font-family="微软雅黑" text-anchor="middle" font-size="13px" width="199px" fill="#323232" font-weight="400" align="middle" anchor="middle" family="微软雅黑" size="13px" weight="400" font-style="" opacity="1" y="10.335714285714285" transform="rotate(0)"><tspan id="SvgjsTspan1076" dy="16" x="104.5"><tspan id="SvgjsTspan1077" style="text-decoration:;">晚绑定</tspan></tspan></text></g></g><g id="SvgjsG1078" transform="translate(52,80)"><path id="SvgjsPath1079" d="M 0 4Q 0 0 4 0L 140 0Q 144 0 144 4L 144 64Q 144 68 140 68L 4 68Q 0 68 0 64Z" stroke="rgba(50,50,50,1)" stroke-width="2" fill-opacity="1" fill="#ffffff"></path><g id="SvgjsG1080"><text id="SvgjsText1081" font-family="微软雅黑" text-anchor="start" font-size="13px" width="124px" fill="#323232" font-weight="400" align="middle" anchor="start" family="微软雅黑" size="13px" weight="400" font-style="" opacity="1" y="16.05" transform="rotate(0)"><tspan id="SvgjsTspan1082" dy="16" x="10"><tspan id="SvgjsTspan1083" style="text-decoration:;">Libary</tspan></tspan><tspan id="SvgjsTspan1084" dy="16" x="10"><tspan id="SvgjsTspan1085" style="text-decoration:;">Step1,3,5</tspan></tspan></text></g></g><g id="SvgjsG1086" transform="translate(52,211)"><path id="SvgjsPath1087" d="M 0 4Q 0 0 4 0L 140 0Q 144 0 144 4L 144 64Q 144 68 140 68L 4 68Q 0 68 0 64Z" stroke="rgba(50,50,50,1)" stroke-width="2" fill-opacity="1" fill="#ffffff"></path><g id="SvgjsG1088"><text id="SvgjsText1089" font-family="微软雅黑" text-anchor="start" font-size="13px" width="124px" fill="#323232" font-weight="400" align="middle" anchor="start" family="微软雅黑" size="13px" weight="400" font-style="" opacity="1" y="8.05" transform="rotate(0)"><tspan id="SvgjsTspan1090" dy="16" x="10"><tspan id="SvgjsTspan1091" style="text-decoration:;">Application</tspan></tspan><tspan id="SvgjsTspan1092" dy="16" x="10"><tspan id="SvgjsTspan1093" style="text-decoration:;">Step2,4</tspan></tspan><tspan id="SvgjsTspan1094" dy="16" x="10"><tspan id="SvgjsTspan1095" style="text-decoration:;">应用程序流程</tspan></tspan></text></g></g><g id="SvgjsG1096" transform="translate(267,80)"><path id="SvgjsPath1097" d="M 0 4Q 0 0 4 0L 140 0Q 144 0 144 4L 144 64Q 144 68 140 68L 4 68Q 0 68 0 64Z" stroke="rgba(50,50,50,1)" stroke-width="2" fill-opacity="1" fill="#ffffff"></path><g id="SvgjsG1098"><text id="SvgjsText1099" font-family="微软雅黑" text-anchor="start" font-size="13px" width="124px" fill="#323232" font-weight="400" align="middle" anchor="start" family="微软雅黑" size="13px" weight="400" font-style="" opacity="1" y="8.05" transform="rotate(0)"><tspan id="SvgjsTspan1100" dy="16" x="10"><tspan id="SvgjsTspan1101" style="text-decoration:;">Libary</tspan></tspan><tspan id="SvgjsTspan1102" dy="16" x="10"><tspan id="SvgjsTspan1103" style="text-decoration:;">Step1,2,3,4,5</tspan></tspan><tspan id="SvgjsTspan1104" dy="16" x="10"><tspan id="SvgjsTspan1105" style="text-decoration:;">应用程序流程</tspan></tspan></text></g></g><g id="SvgjsG1106" transform="translate(267,211)"><path id="SvgjsPath1107" d="M 0 4Q 0 0 4 0L 140 0Q 144 0 144 4L 144 64Q 144 68 140 68L 4 68Q 0 68 0 64Z" stroke="rgba(50,50,50,1)" stroke-width="2" fill-opacity="1" fill="#ffffff"></path><g id="SvgjsG1108"><text id="SvgjsText1109" font-family="微软雅黑" text-anchor="start" font-size="13px" width="124px" fill="#323232" font-weight="400" align="middle" anchor="start" family="微软雅黑" size="13px" weight="400" font-style="" opacity="1" y="16.05" transform="rotate(0)"><tspan id="SvgjsTspan1110" dy="16" x="10"><tspan id="SvgjsTspan1111" style="text-decoration:;">Application</tspan></tspan><tspan id="SvgjsTspan1112" dy="16" x="10"><tspan id="SvgjsTspan1113" style="text-decoration:;">Step2,4</tspan></tspan></text></g></g><g id="SvgjsG1114"><path id="SvgjsPath1115" d="M124 211L124 179.5L124 179.5L124 148" stroke="#323232" stroke-width="2" fill="none" marker-end="url(#SvgjsMarker1116)"></path></g><g id="SvgjsG1118"><path id="SvgjsPath1119" d="M339 148L339 179.5L339 179.5L339 211" stroke="#323232" stroke-width="2" fill="none" marker-end="url(#SvgjsMarker1120)"></path></g></svg>