<svg id="SvgjsSvg1684" width="929.4125061035156" height="832" xmlns="http://www.w3.org/2000/svg" version="1.1" xmlns:xlink="http://www.w3.org/1999/xlink" xmlns:svgjs="http://svgjs.com/svgjs"><defs id="SvgjsDefs1685"><marker id="SvgjsMarker1722" markerWidth="16" markerHeight="12" refX="16" refY="6" viewBox="0 0 16 12" orient="auto" markerUnits="userSpaceOnUse" stroke-dasharray="0,0"><path id="SvgjsPath1723" d="M0,2 L14,6 L0,11 L0,2" fill="#323232" stroke="#323232" stroke-width="2"></path></marker><marker id="SvgjsMarker1732" markerWidth="16" markerHeight="12" refX="16" refY="6" viewBox="0 0 16 12" orient="auto" markerUnits="userSpaceOnUse" stroke-dasharray="0,0"><path id="SvgjsPath1733" d="M0,2 L14,6 L0,11 L0,2" fill="#323232" stroke="#323232" stroke-width="2"></path></marker><marker id="SvgjsMarker1736" markerWidth="16" markerHeight="12" refX="16" refY="6" viewBox="0 0 16 12" orient="auto" markerUnits="userSpaceOnUse" stroke-dasharray="0,0"><path id="SvgjsPath1737" d="M0,2 L14,6 L0,11 L0,2" fill="#323232" stroke="#323232" stroke-width="2"></path></marker><marker id="SvgjsMarker1810" markerWidth="16" markerHeight="12" refX="16" refY="6" viewBox="0 0 16 12" orient="auto" markerUnits="userSpaceOnUse" stroke-dasharray="0,0"><path id="SvgjsPath1811" d="M0,2 L14,6 L0,11 L0,2" fill="#323232" stroke="#323232" stroke-width="2"></path></marker><marker id="SvgjsMarker1814" markerWidth="16" markerHeight="12" refX="16" refY="6" viewBox="0 0 16 12" orient="auto" markerUnits="userSpaceOnUse" stroke-dasharray="0,0"><path id="SvgjsPath1815" d="M0,2 L14,6 L0,11 L0,2" fill="#323232" stroke="#323232" stroke-width="2"></path></marker><marker id="SvgjsMarker1818" markerWidth="16" markerHeight="12" refX="16" refY="6" viewBox="0 0 16 12" orient="auto" markerUnits="userSpaceOnUse" stroke-dasharray="0,0"><path id="SvgjsPath1819" d="M0,2 L14,6 L0,11 L0,2" fill="#323232" stroke="#323232" stroke-width="2"></path></marker><marker id="SvgjsMarker1822" markerWidth="16" markerHeight="12" refX="16" refY="6" viewBox="0 0 16 12" orient="auto" markerUnits="userSpaceOnUse" stroke-dasharray="0,0"><path id="SvgjsPath1823" d="M0,2 L14,6 L0,11 L0,2" fill="#323232" stroke="#323232" stroke-width="2"></path></marker></defs><g id="SvgjsG1686" transform="translate(25.01251220703125,25.012481689453125)"><path id="SvgjsPath1687" d="M 0 4Q 0 0 4 0L 209.39999389648438 0Q 213.39999389648438 0 213.39999389648438 4L 213.39999389648438 778.0000305175781Q 213.39999389648438 782.0000305175781 209.39999389648438 782.0000305175781L 4 782.0000305175781Q 0 782.0000305175781 0 778.0000305175781Z" stroke="rgba(50,50,50,1)" stroke-width="2" fill-opacity="1" fill="#e9c46a"></path><g id="SvgjsG1688"><text id="SvgjsText1689" font-family="微软雅黑" text-anchor="middle" font-size="22px" width="204px" fill="#323232" font-weight="700" align="middle" anchor="middle" family="微软雅黑" size="22px" weight="700" font-style="" opacity="1" y="37.557145036969864" transform="rotate(0)"><tspan id="SvgjsTspan1690" dy="27" x="107"><tspan id="SvgjsTspan1691" style="text-decoration:;">阶段</tspan></tspan></text></g></g><g id="SvgjsG1692" transform="translate(238.41250610351562,25.012481689453125)"><path id="SvgjsPath1693" d="M 0 4Q 0 0 4 0L 661.6000061035156 0Q 665.6000061035156 0 665.6000061035156 4L 665.6000061035156 778.0000305175781Q 665.6000061035156 782.0000305175781 661.6000061035156 782.0000305175781L 4 782.0000305175781Q 0 782.0000305175781 0 778.0000305175781Z" stroke="rgba(50,50,50,1)" stroke-width="2" fill-opacity="1" fill="#f4a261"></path><g id="SvgjsG1694"><text id="SvgjsText1695" font-family="微软雅黑" text-anchor="middle" font-size="22px" width="656px" fill="#323232" font-weight="700" align="middle" anchor="middle" family="微软雅黑" size="22px" weight="700" font-style="" opacity="1" y="37.557145036969864" transform="rotate(0)"><tspan id="SvgjsTspan1696" dy="27" x="333"><tspan id="SvgjsTspan1697" style="text-decoration:;">实现</tspan></tspan></text></g></g><g id="SvgjsG1698" transform="translate(277.21250915527344,203.41250038146973)"><path id="SvgjsPath1699" d="M 0 4Q 0 0 4 0L 584 0Q 588 0 588 4L 588 150Q 588 154 584 154L 4 154Q 0 154 0 150Z" stroke="rgba(50,50,50,1)" stroke-width="2" fill-opacity="1" fill="#ffffcc"></path><g id="SvgjsG1700"><text id="SvgjsText1701" font-family="微软雅黑" text-anchor="middle" font-size="13px" width="568px" fill="#323232" font-weight="400" align="middle" anchor="middle" family="微软雅黑" size="13px" weight="400" font-style="" opacity="1" y="67.05" transform="rotate(0)"></text></g></g><g id="SvgjsG1702" transform="translate(33.21250915527344,253.4124984741211)"><path id="SvgjsPath1703" d="M 0 4Q 0 0 4 0L 193 0Q 197 0 197 4L 197 57Q 197 61 193 61L 4 61Q 0 61 0 57Z" stroke="rgba(50,50,50,1)" stroke-width="2" fill-opacity="1" fill="#ffffff"></path><g id="SvgjsG1704"><text id="SvgjsText1705" font-family="微软雅黑" text-anchor="middle" font-size="13px" width="177px" fill="#323232" font-weight="400" align="middle" anchor="middle" family="微软雅黑" size="13px" weight="400" font-style="" opacity="1" y="20.55" transform="rotate(0)"><tspan id="SvgjsTspan1706" dy="16" x="98.5"><tspan id="SvgjsTspan1707" style="text-decoration:;">ConfigureWebHostDefaults</tspan></tspan></text></g></g><g id="SvgjsG1708" transform="translate(33.21250915527344,458.4124984741211)"><path id="SvgjsPath1709" d="M 0 4Q 0 0 4 0L 193 0Q 197 0 197 4L 197 57Q 197 61 193 61L 4 61Q 0 61 0 57Z" stroke="rgba(50,50,50,1)" stroke-width="2" fill-opacity="1" fill="#ffffff"></path><g id="SvgjsG1710"><text id="SvgjsText1711" font-family="微软雅黑" text-anchor="middle" font-size="13px" width="177px" fill="#323232" font-weight="400" align="middle" anchor="middle" family="微软雅黑" size="13px" weight="400" font-style="" opacity="1" y="20.55" transform="rotate(0)"><tspan id="SvgjsTspan1712" dy="16" x="98.5"><tspan id="SvgjsTspan1713" style="text-decoration:;">Build</tspan></tspan></text></g></g><g id="SvgjsG1714" transform="translate(33.21250915527344,676.212498664856)"><path id="SvgjsPath1715" d="M 0 4Q 0 0 4 0L 193 0Q 197 0 197 4L 197 57Q 197 61 193 61L 4 61Q 0 61 0 57Z" stroke="rgba(50,50,50,1)" stroke-width="2" fill-opacity="1" fill="#ffffff"></path><g id="SvgjsG1716"><text id="SvgjsText1717" font-family="微软雅黑" text-anchor="middle" font-size="13px" width="177px" fill="#323232" font-weight="400" align="middle" anchor="middle" family="微软雅黑" size="13px" weight="400" font-style="" opacity="1" y="20.55" transform="rotate(0)"><tspan id="SvgjsTspan1718" dy="16" x="98.5"><tspan id="SvgjsTspan1719" style="text-decoration:;">Run</tspan></tspan></text></g></g><g id="SvgjsG1720"><path id="SvgjsPath1721" d="M131.71250915527344 519.4124984741211L131.71250915527344 597.8124985694885L131.71250915527344 597.8124985694885L131.71250915527344 676.212498664856" stroke="#323232" stroke-width="2" fill="none" marker-end="url(#SvgjsMarker1722)"></path></g><g id="SvgjsG1724" transform="translate(33.21250915527344,110.4124984741211)"><path id="SvgjsPath1725" d="M 0 4Q 0 0 4 0L 193 0Q 197 0 197 4L 197 57Q 197 61 193 61L 4 61Q 0 61 0 57Z" stroke="rgba(50,50,50,1)" stroke-width="2" fill-opacity="1" fill="#ffffff"></path><g id="SvgjsG1726"><text id="SvgjsText1727" font-family="微软雅黑" text-anchor="middle" font-size="13px" width="177px" fill="#323232" font-weight="400" align="middle" anchor="middle" family="微软雅黑" size="13px" weight="400" font-style="" opacity="1" y="20.55" transform="rotate(0)"><tspan id="SvgjsTspan1728" dy="16" x="98.5"><tspan id="SvgjsTspan1729" style="text-decoration:;">CreateHostBuilder</tspan></tspan></text></g></g><g id="SvgjsG1730"><path id="SvgjsPath1731" d="M131.71250915527344 314.4124984741211L131.71250915527344 386.4124984741211L131.71250915527344 386.4124984741211L131.71250915527344 458.4124984741211" stroke="#323232" stroke-width="2" fill="none" marker-end="url(#SvgjsMarker1732)"></path></g><g id="SvgjsG1734"><path id="SvgjsPath1735" d="M131.71250915527344 171.4124984741211L131.71250915527344 212.4124984741211L131.71250915527344 212.4124984741211L131.71250915527344 253.4124984741211" stroke="#323232" stroke-width="2" fill="none" marker-end="url(#SvgjsMarker1736)"></path></g><g id="SvgjsG1738" transform="translate(316.21250915527344,253.4124984741211)"><path id="SvgjsPath1739" d="M 0 0L 112 0L 112 61L 0 61Z" stroke="rgba(50,50,50,1)" stroke-width="2" fill-opacity="1" fill="#ffffff"></path><g id="SvgjsG1740"><text id="SvgjsText1741" font-family="微软雅黑" text-anchor="middle" font-size="13px" width="92px" fill="#323232" font-weight="400" align="middle" anchor="middle" family="微软雅黑" size="13px" weight="400" font-style="" opacity="1" y="20.55" transform="rotate(0)"><tspan id="SvgjsTspan1742" dy="16" x="56"><tspan id="SvgjsTspan1743" style="text-decoration:;">UseKestrel</tspan></tspan></text></g></g><g id="SvgjsG1744" transform="translate(456.21250915527344,253.4124984741211)"><path id="SvgjsPath1745" d="M 0 0L 112 0L 112 61L 0 61Z" stroke="rgba(50,50,50,1)" stroke-width="2" fill-opacity="1" fill="#ffffff"></path><g id="SvgjsG1746"><text id="SvgjsText1747" font-family="微软雅黑" text-anchor="middle" font-size="13px" width="92px" fill="#323232" font-weight="400" align="middle" anchor="middle" family="微软雅黑" size="13px" weight="400" font-style="" opacity="1" y="20.55" transform="rotate(0)"><tspan id="SvgjsTspan1748" dy="16" x="56"><tspan id="SvgjsTspan1749" style="text-decoration:;">UseUrls</tspan></tspan></text></g></g><g id="SvgjsG1750" transform="translate(593.2125091552734,253.4124984741211)"><path id="SvgjsPath1751" d="M 0 0L 138 0L 138 61L 0 61Z" stroke="rgba(50,50,50,1)" stroke-width="2" fill-opacity="1" fill="#ffffff"></path><g id="SvgjsG1752"><text id="SvgjsText1753" font-family="微软雅黑" text-anchor="middle" font-size="13px" width="118px" fill="#323232" font-weight="400" align="middle" anchor="middle" family="微软雅黑" size="13px" weight="400" font-style="" opacity="1" y="20.55" transform="rotate(0)"><tspan id="SvgjsTspan1754" dy="16" x="69"><tspan id="SvgjsTspan1755" style="text-decoration:;">UseWebRoot</tspan></tspan></text></g></g><g id="SvgjsG1756" transform="translate(277.21250915527344,203.41250038146973)"><path id="SvgjsPath1757" d="M 0 0L 494 0L 494 44L 0 44Z" stroke="none" fill="none"></path><g id="SvgjsG1758"><text id="SvgjsText1759" font-family="微软雅黑" text-anchor="middle" font-size="13px" width="494px" fill="#323232" font-weight="700" align="middle" anchor="middle" family="微软雅黑" size="13px" weight="700" font-style="" opacity="1" y="12.05" transform="rotate(0)"><tspan id="SvgjsTspan1760" dy="16" x="247"><tspan id="SvgjsTspan1761" style="text-decoration:;">服务主机(Host)配置 HostingAbstractionsWebHostBuilderExtensions</tspan></tspan></text></g></g><g id="SvgjsG1762" transform="translate(747.2125091552734,253.4124984741211)"><path id="SvgjsPath1763" d="M 0 0L 101 0L 101 61L 0 61Z" stroke="rgba(50,50,50,1)" stroke-width="2" fill-opacity="1" fill="#ffffff"></path><g id="SvgjsG1764"><text id="SvgjsText1765" font-family="微软雅黑" text-anchor="middle" font-size="13px" width="81px" fill="#323232" font-weight="400" align="middle" anchor="middle" family="微软雅黑" size="13px" weight="400" font-style="" opacity="1" y="20.55" transform="rotate(0)"><tspan id="SvgjsTspan1766" dy="16" x="50.5"><tspan id="SvgjsTspan1767" style="text-decoration:;">....</tspan></tspan></text></g></g><g id="SvgjsG1768" transform="translate(277.21250915527344,383.4125003814697)"><path id="SvgjsPath1769" d="M 0 4Q 0 0 4 0L 584 0Q 588 0 588 4L 588 214.99999809265137Q 588 218.99999809265137 584 218.99999809265137L 4 218.99999809265137Q 0 218.99999809265137 0 214.99999809265137Z" stroke="rgba(50,50,50,1)" stroke-width="2" fill-opacity="1" fill="#ffffcc"></path><g id="SvgjsG1770"><text id="SvgjsText1771" font-family="微软雅黑" text-anchor="middle" font-size="13px" width="568px" fill="#323232" font-weight="400" align="middle" anchor="middle" family="微软雅黑" size="13px" weight="400" font-style="" opacity="1" y="99.54999904632568" transform="rotate(0)"></text></g></g><g id="SvgjsG1772" transform="translate(307.21250915527344,433.4124984741211)"><path id="SvgjsPath1773" d="M 0 0L 252 0L 252 47L 0 47Z" stroke="rgba(50,50,50,1)" stroke-width="2" fill-opacity="1" fill="#ffffff"></path><g id="SvgjsG1774"><text id="SvgjsText1775" font-family="微软雅黑" text-anchor="middle" font-size="13px" width="232px" fill="#323232" font-weight="400" align="middle" anchor="middle" family="微软雅黑" size="13px" weight="400" font-style="" opacity="1" y="13.55" transform="rotate(0)"><tspan id="SvgjsTspan1776" dy="16" x="126"><tspan id="SvgjsTspan1777" style="text-decoration:;">ConfigureHostConfiguration</tspan></tspan></text></g></g><g id="SvgjsG1778" transform="translate(585.2125091552734,433.4124984741211)"><path id="SvgjsPath1779" d="M 0 0L 245 0L 245 47L 0 47Z" stroke="rgba(50,50,50,1)" stroke-width="2" fill-opacity="1" fill="#ffffff"></path><g id="SvgjsG1780"><text id="SvgjsText1781" font-family="微软雅黑" text-anchor="middle" font-size="13px" width="225px" fill="#323232" font-weight="400" align="middle" anchor="middle" family="微软雅黑" size="13px" weight="400" font-style="" opacity="1" y="13.55" transform="rotate(0)"><tspan id="SvgjsTspan1782" dy="16" x="122.5"><tspan id="SvgjsTspan1783" style="text-decoration:;">ConfigureAppConfiguration</tspan></tspan></text></g></g><g id="SvgjsG1784" transform="translate(307.21250915527344,522.4124984741211)"><path id="SvgjsPath1785" d="M 0 0L 138 0L 138 61L 0 61Z" stroke="rgba(50,50,50,1)" stroke-width="2" fill-opacity="1" fill="#ffffff"></path><g id="SvgjsG1786"><text id="SvgjsText1787" font-family="微软雅黑" text-anchor="middle" font-size="13px" width="118px" fill="#323232" font-weight="400" align="middle" anchor="middle" family="微软雅黑" size="13px" weight="400" font-style="" opacity="1" y="20.55" transform="rotate(0)"><tspan id="SvgjsTspan1788" dy="16" x="69"><tspan id="SvgjsTspan1789" style="text-decoration:;">ConfigureLogging</tspan></tspan></text></g></g><g id="SvgjsG1790" transform="translate(291.21250915527344,383.4125003814697)"><path id="SvgjsPath1791" d="M 0 0L 339 0L 339 38L 0 38Z" stroke="none" fill="none"></path><g id="SvgjsG1792"><text id="SvgjsText1793" font-family="微软雅黑" text-anchor="middle" font-size="13px" width="339px" fill="#323232" font-weight="700" align="middle" anchor="middle" family="微软雅黑" size="13px" weight="700" font-style="" opacity="1" y="9.05" transform="rotate(0)"><tspan id="SvgjsTspan1794" dy="16" x="169.5"><tspan id="SvgjsTspan1795" style="text-decoration:;">应用程序环境构建 HostingHostBuilderExtensions</tspan></tspan></text></g></g><g id="SvgjsG1796" transform="translate(480.96250915527344,522.4124984741211)"><path id="SvgjsPath1797" d="M 0 0L 149.5 0L 149.5 61L 0 61Z" stroke="rgba(50,50,50,1)" stroke-width="2" fill-opacity="1" fill="#ffffff"></path><g id="SvgjsG1798"><text id="SvgjsText1799" font-family="微软雅黑" text-anchor="middle" font-size="13px" width="130px" fill="#323232" font-weight="400" align="middle" anchor="middle" family="微软雅黑" size="13px" weight="400" font-style="" opacity="1" y="20.55" transform="rotate(0)"><tspan id="SvgjsTspan1800" dy="16" x="75"><tspan id="SvgjsTspan1801" style="text-decoration:;">ConfigureServices</tspan></tspan></text></g></g><g id="SvgjsG1802" transform="translate(658.7125091552734,522.4124984741211)"><path id="SvgjsPath1803" d="M 0 0L 195.5 0L 195.5 61L 0 61Z" stroke="rgba(50,50,50,1)" stroke-width="2" fill-opacity="1" fill="#ffffff"></path><g id="SvgjsG1804"><text id="SvgjsText1805" font-family="微软雅黑" text-anchor="middle" font-size="13px" width="176px" fill="#323232" font-weight="400" align="middle" anchor="middle" family="微软雅黑" size="13px" weight="400" font-style="" opacity="1" y="20.55" transform="rotate(0)"><tspan id="SvgjsTspan1806" dy="16" x="98"><tspan id="SvgjsTspan1807" style="text-decoration:;">Startup.ConfigureServices</tspan></tspan></text></g></g><g id="SvgjsG1808"><path id="SvgjsPath1809" d="M559.2125091552734 456.9124984741211L572.2125091552734 456.9124984741211L572.2125091552734 456.9124984741211L585.2125091552734 456.9124984741211" stroke="#323232" stroke-width="2" fill="none" marker-end="url(#SvgjsMarker1810)"></path></g><g id="SvgjsG1812"><path id="SvgjsPath1813" d="M707.7125091552734 480.4124984741211L707.7125091552734 501.4124984741211L376.21250915527344 501.4124984741211L376.21250915527344 522.4124984741211" stroke="#323232" stroke-width="2" fill="none" marker-end="url(#SvgjsMarker1814)"></path></g><g id="SvgjsG1816"><path id="SvgjsPath1817" d="M445.21250915527344 552.9124984741211L463.08750915527344 552.9124984741211L463.08750915527344 552.9124984741211L480.96250915527344 552.9124984741211" stroke="#323232" stroke-width="2" fill="none" marker-end="url(#SvgjsMarker1818)"></path></g><g id="SvgjsG1820"><path id="SvgjsPath1821" d="M630.4625091552734 552.9124984741211L644.5875091552734 552.9124984741211L644.5875091552734 552.9124984741211L658.7125091552734 552.9124984741211" stroke="#323232" stroke-width="2" fill="none" marker-end="url(#SvgjsMarker1822)"></path></g><g id="SvgjsG1824" transform="translate(164.41250610351562,206.91250228881836)"><path id="SvgjsPath1825" d="M 99 0Q 90 0 90 9L 90 64.49999809265137Q 90 73.49999809265137 77 73.49999809265137Q 90 73.49999809265137 90 82.49999809265137L 90 137.99999618530273Q 90 146.99999618530273 99 146.99999618530273" stroke="rgba(50,50,50,1)" stroke-width="2" fill="none"></path><path id="SvgjsPath1826" d="M 0 0L 99 0L 99 146.99999618530273L 0 146.99999618530273Z" stroke="none" fill="none"></path><g id="SvgjsG1827"><text id="SvgjsText1828" font-family="微软雅黑" text-anchor="end" font-size="13px" width="72px" fill="#323232" font-weight="400" align="middle" anchor="end" family="微软雅黑" size="13px" weight="400" font-style="" opacity="1" y="63.549998092651364" transform="rotate(0)"></text></g></g><g id="SvgjsG1829" transform="translate(163.91250610351562,386.9124984741211)"><path id="SvgjsPath1830" d="M 100 0Q 91 0 91 9L 91 97.00000095367432Q 91 106.00000095367432 78 106.00000095367432Q 91 106.00000095367432 91 115.00000095367432L 91 203.00000190734863Q 91 212.00000190734863 100 212.00000190734863" stroke="rgba(50,50,50,1)" stroke-width="2" fill="none"></path><path id="SvgjsPath1831" d="M 0 0L 100 0L 100 212.00000190734863L 0 212.00000190734863Z" stroke="none" fill="none"></path><g id="SvgjsG1832"><text id="SvgjsText1833" font-family="微软雅黑" text-anchor="end" font-size="13px" width="73px" fill="#323232" font-weight="400" align="middle" anchor="end" family="微软雅黑" size="13px" weight="400" font-style="" opacity="1" y="96.05000095367431" transform="rotate(0)"></text></g></g><g id="SvgjsG1834" transform="translate(277.21250915527344,622.4125003814697)"><path id="SvgjsPath1835" d="M 0 4Q 0 0 4 0L 584 0Q 588 0 588 4L 588 164.59999656677246Q 588 168.59999656677246 584 168.59999656677246L 4 168.59999656677246Q 0 168.59999656677246 0 164.59999656677246Z" stroke="rgba(50,50,50,1)" stroke-width="2" fill-opacity="1" fill="#ffffcc"></path><g id="SvgjsG1836"><text id="SvgjsText1837" font-family="微软雅黑" text-anchor="middle" font-size="13px" width="568px" fill="#323232" font-weight="400" align="middle" anchor="middle" family="微软雅黑" size="13px" weight="400" font-style="" opacity="1" y="74.34999828338623" transform="rotate(0)"></text></g></g><g id="SvgjsG1838" transform="translate(311.4125061035156,655.4124984741211)"><path id="SvgjsPath1839" d="M 0 0L 103 0L 103 118.5999984741211L 0 118.5999984741211Z" stroke="rgba(50,50,50,1)" stroke-width="2" fill-opacity="1" fill="#ffffff"></path><g id="SvgjsG1840"><text id="SvgjsText1841" font-family="微软雅黑" text-anchor="middle" font-size="13px" width="83px" fill="#323232" font-weight="400" align="middle" anchor="middle" family="微软雅黑" size="13px" weight="400" font-style="" opacity="1" y="49.349999237060544" transform="rotate(0)"><tspan id="SvgjsTspan1842" dy="16" x="51.5"><tspan id="SvgjsTspan1843" style="text-decoration:;">MiddleWare</tspan></tspan></text></g></g><g id="SvgjsG1844" transform="translate(257.21250915527344,622.4125003814697)"><path id="SvgjsPath1845" d="M 0 0L 352 0L 352 24.59999656677246L 0 24.59999656677246Z" stroke="none" fill="none"></path><g id="SvgjsG1846"><text id="SvgjsText1847" font-family="微软雅黑" text-anchor="middle" font-size="13px" width="352px" fill="#323232" font-weight="700" align="middle" anchor="middle" family="微软雅黑" size="13px" weight="700" font-style="" opacity="1" y="2.3499982833862303" transform="rotate(0)"><tspan id="SvgjsTspan1848" dy="16" x="176"><tspan id="SvgjsTspan1849" style="text-decoration:;">Http 请求管道 中间件(Startup.Configure)</tspan></tspan></text></g></g><g id="SvgjsG1850" transform="translate(166.16250610351562,625.0124969482422)"><path id="SvgjsPath1851" d="M 95.5 0Q 86.5 0 86.5 9L 86.5 72.70000171661377Q 86.5 81.70000171661377 73.5 81.70000171661377Q 86.5 81.70000171661377 86.5 90.70000171661377L 86.5 154.40000343322754Q 86.5 163.40000343322754 95.5 163.40000343322754" stroke="rgba(50,50,50,1)" stroke-width="2" fill="none"></path><path id="SvgjsPath1852" d="M 0 0L 95.5 0L 95.5 163.40000343322754L 0 163.40000343322754Z" stroke="none" fill="none"></path><g id="SvgjsG1853"><text id="SvgjsText1854" font-family="微软雅黑" text-anchor="end" font-size="13px" width="69px" fill="#323232" font-weight="400" align="middle" anchor="end" family="微软雅黑" size="13px" weight="400" font-style="" opacity="1" y="71.75000171661377" transform="rotate(0)"></text></g></g><g id="SvgjsG1855" transform="translate(445.21250915527344,655.4124984741211)"><path id="SvgjsPath1856" d="M 0 0L 103 0L 103 118.5999984741211L 0 118.5999984741211Z" stroke="rgba(50,50,50,1)" stroke-width="2" fill-opacity="1" fill="#ffffff"></path><g id="SvgjsG1857"><text id="SvgjsText1858" font-family="微软雅黑" text-anchor="middle" font-size="13px" width="83px" fill="#323232" font-weight="400" align="middle" anchor="middle" family="微软雅黑" size="13px" weight="400" font-style="" opacity="1" y="49.349999237060544" transform="rotate(0)"><tspan id="SvgjsTspan1859" dy="16" x="51.5"><tspan id="SvgjsTspan1860" style="text-decoration:;">UseRouting</tspan></tspan></text></g></g><g id="SvgjsG1861" transform="translate(575.2125091552734,655.4124984741211)"><path id="SvgjsPath1862" d="M 0 0L 103 0L 103 118.5999984741211L 0 118.5999984741211Z" stroke="rgba(50,50,50,1)" stroke-width="2" fill-opacity="1" fill="#ffffff"></path><g id="SvgjsG1863"><text id="SvgjsText1864" font-family="微软雅黑" text-anchor="middle" font-size="13px" width="83px" fill="#323232" font-weight="400" align="middle" anchor="middle" family="微软雅黑" size="13px" weight="400" font-style="" opacity="1" y="49.349999237060544" transform="rotate(0)"><tspan id="SvgjsTspan1865" dy="16" x="51.5"><tspan id="SvgjsTspan1866" style="text-decoration:;">...</tspan></tspan></text></g></g><g id="SvgjsG1867" transform="translate(720.4125061035156,655.4124984741211)"><path id="SvgjsPath1868" d="M 0 0L 112 0L 112 118.5999984741211L 0 118.5999984741211Z" stroke="rgba(50,50,50,1)" stroke-width="2" fill-opacity="1" fill="#ffffff"></path><g id="SvgjsG1869"><text id="SvgjsText1870" font-family="微软雅黑" text-anchor="middle" font-size="13px" width="92px" fill="#323232" font-weight="400" align="middle" anchor="middle" family="微软雅黑" size="13px" weight="400" font-style="" opacity="1" y="49.349999237060544" transform="rotate(0)"><tspan id="SvgjsTspan1871" dy="16" x="56"><tspan id="SvgjsTspan1872" style="text-decoration:;">UseEndpoints</tspan></tspan></text></g></g></svg>